<svg width="10" height="17" viewBox="0 0 10 17" fill="none" xmlns="http://www.w3.org/2000/svg">
<path d="M9.65491 0.00353089L7.45429 0C4.98196 0 3.38422 1.63922 3.38422 4.17634V6.10191H1.17159C0.980391 6.10191 0.825562 6.25691 0.825562 6.44812V9.23805C0.825562 9.42929 0.980568 9.58409 1.17159 9.58409H3.38422V16.624C3.38422 16.8152 3.53905 16.97 3.73025 16.97H6.61711C6.80831 16.97 6.96314 16.815 6.96314 16.624V9.58409H9.55023C9.74142 9.58409 9.89625 9.42929 9.89625 9.23805L9.89731 6.44812C9.89731 6.35631 9.86077 6.2684 9.79597 6.20342C9.73118 6.13845 9.64291 6.10191 9.5511 6.10191H6.96314V4.46958C6.96314 3.68502 7.1501 3.28673 8.17212 3.28673L9.65456 3.2862C9.84558 3.2862 10.0004 3.13119 10.0004 2.94017V0.349558C10.0004 0.158714 9.84576 0.00388398 9.65491 0.00353089Z" fill="#797979"/>
</svg>
