<svg width="17" height="14" viewBox="0 0 17 14" fill="none" xmlns="http://www.w3.org/2000/svg">
<path d="M16.97 1.63675C16.3024 1.92391 15.6346 2.10324 14.9673 2.17527C15.721 1.72304 16.2309 1.08415 16.4965 0.258649C15.807 0.667739 15.0713 0.947619 14.289 1.09844C13.5997 0.366249 12.7528 0 11.7477 0C10.7858 0 9.96577 0.339129 9.28707 1.01754C8.60887 1.69592 8.26967 2.51599 8.26967 3.47787C8.26967 3.73625 8.29834 4.00195 8.35581 4.27471C6.93442 4.20293 5.60105 3.84582 4.35549 3.20334C3.10999 2.56079 2.05296 1.70475 1.1844 0.635189C0.86853 1.17346 0.71055 1.7586 0.71055 2.39029C0.71055 2.98611 0.8505 3.53892 1.13061 4.04861C1.41053 4.55821 1.78749 4.97092 2.2613 5.28682C1.70128 5.26525 1.17726 5.11805 0.6892 4.84526V4.88832C0.6892 5.72827 0.95301 6.46571 1.48057 7.1012C2.0082 7.73662 2.67405 8.13659 3.47798 8.30177C3.17645 8.38064 2.8713 8.42013 2.56267 8.42013C2.36166 8.42013 2.14269 8.40221 1.90584 8.36657C2.12836 9.06273 2.53756 9.63503 3.1333 10.0839C3.72915 10.5325 4.40395 10.7638 5.15772 10.7785C3.89435 11.7689 2.45507 12.2642 0.83991 12.2642C0.53118 12.2642 0.25129 12.2501 0 12.2213C1.61521 13.262 3.39546 13.7824 5.34086 13.7824C6.57556 13.7824 7.73491 13.587 8.81847 13.1957C9.90267 12.8046 10.8286 12.2805 11.5968 11.6235C12.3648 10.9667 13.0271 10.2112 13.5834 9.35703C14.1397 8.50272 14.5541 7.61088 14.8271 6.68129C15.0998 5.7515 15.2362 4.82029 15.2362 3.88692C15.2362 3.6859 15.2326 3.53523 15.2254 3.43468C15.9076 2.9396 16.489 2.34009 16.97 1.63675Z" fill="#6F6F6F"/>
</svg>
