<svg width="20" height="11" viewBox="0 0 20 11" fill="none" xmlns="http://www.w3.org/2000/svg">
<path d="M19.7256 9.71563C19.7028 9.66643 19.6815 9.62553 19.6617 9.59283C19.3345 9.00369 18.7094 8.28049 17.7866 7.42309L17.7671 7.40345L17.7573 7.39383L17.7474 7.38396H17.7375C17.3187 6.98471 17.0535 6.71626 16.9424 6.57883C16.7392 6.31702 16.6937 6.052 16.8048 5.78349C16.8832 5.58061 17.178 5.15217 17.6883 4.49758C17.9567 4.15065 18.1693 3.87262 18.3264 3.66314C19.4588 2.15774 19.9497 1.19577 19.799 0.776861L19.7406 0.678961C19.7013 0.620031 19.5998 0.566111 19.4363 0.516941C19.2726 0.467871 19.0632 0.459761 18.8079 0.492461L15.9806 0.511991C15.9348 0.495761 15.8693 0.497271 15.7842 0.516941C15.6991 0.536611 15.6565 0.546471 15.6565 0.546471L15.6072 0.571061L15.5682 0.600601C15.5355 0.620131 15.4995 0.654481 15.4602 0.703581C15.421 0.752511 15.3884 0.809941 15.3622 0.875371C15.0544 1.6673 14.7044 2.4036 14.3117 3.08423C14.0695 3.49008 13.8471 3.84181 13.644 4.13962C13.4411 4.43733 13.2709 4.65667 13.1336 4.79728C12.996 4.93802 12.872 5.05077 12.7604 5.13594C12.6492 5.22115 12.5642 5.25715 12.5053 5.24397C12.4464 5.23081 12.3909 5.21775 12.3383 5.20468C12.2467 5.14574 12.1731 5.06559 12.1176 4.96415C12.0617 4.86272 12.0242 4.73504 12.0046 4.58123C11.985 4.42732 11.9735 4.29494 11.9702 4.18363C11.9671 4.07247 11.9685 3.91522 11.9752 3.71235C11.982 3.50937 11.985 3.37203 11.985 3.30003C11.985 3.05129 11.9899 2.78133 11.9996 2.49008C12.0095 2.19883 12.0175 1.96808 12.0242 1.79807C12.0309 1.62789 12.034 1.44786 12.034 1.25805C12.034 1.06824 12.0224 0.919381 11.9996 0.811351C11.9771 0.703441 11.9425 0.598711 11.8969 0.497171C11.8509 0.395731 11.7837 0.317261 11.6956 0.261561C11.6072 0.205921 11.4974 0.16177 11.3667 0.128967C11.0198 0.0504648 10.578 0.00799877 10.0412 0.00139677C8.82396 -0.0116692 8.0418 0.0669358 7.69491 0.237111C7.55747 0.309011 7.4331 0.407251 7.3219 0.531521C7.20406 0.675561 7.18763 0.754161 7.2727 0.767091C7.66545 0.825931 7.94348 0.966671 8.10713 1.18917L8.1661 1.30709C8.21197 1.39215 8.25777 1.54276 8.3036 1.7587C8.34938 1.97464 8.37891 2.21352 8.39191 2.47519C8.42457 2.95304 8.42457 3.3621 8.39191 3.70237C8.35913 4.04279 8.32819 4.3078 8.29866 4.49761C8.26912 4.68742 8.22497 4.84122 8.1661 4.95899C8.10713 5.0768 8.06789 5.1488 8.04823 5.17493C8.02859 5.20107 8.01222 5.21754 7.99923 5.224C7.91415 5.2566 7.82568 5.27321 7.73411 5.27321C7.64241 5.27321 7.53121 5.22733 7.40033 5.13567C7.2695 5.04399 7.13371 4.91808 6.99296 4.7577C6.85223 4.5973 6.69351 4.37313 6.51673 4.08519C6.34009 3.79724 6.15682 3.45693 5.96701 3.06425L5.80997 2.77947C5.7118 2.59626 5.5777 2.3295 5.40752 1.97942C5.23725 1.6292 5.08674 1.29044 4.9559 0.963191C4.9036 0.825751 4.82503 0.721121 4.72033 0.649121L4.6712 0.619581C4.63853 0.593451 4.58609 0.565701 4.51416 0.536121C4.44212 0.506591 4.36695 0.485411 4.28834 0.472371L1.5984 0.491901C1.32352 0.491901 1.13702 0.554181 1.03881 0.678551L0.999509 0.737381C0.979875 0.770151 0.969971 0.822491 0.969971 0.894521C0.969971 0.966531 0.989606 1.0549 1.02891 1.15953C1.42159 2.08244 1.84863 2.97251 2.31001 3.82987C2.77139 4.68725 3.17233 5.37788 3.51257 5.90116C3.85288 6.42481 4.19977 6.91904 4.55322 7.38358C4.90666 7.8483 5.14062 8.14612 5.2551 8.27695C5.3697 8.40803 5.45972 8.50602 5.52515 8.57146L5.77063 8.80703C5.92771 8.96415 6.15836 9.1523 6.46271 9.37153C6.76712 9.59083 7.10414 9.80673 7.47392 10.0196C7.84376 10.2322 8.27404 10.4056 8.76495 10.5398C9.25581 10.674 9.73356 10.7279 10.1983 10.7019H11.3273C11.5562 10.6821 11.7297 10.6102 11.8476 10.4859L11.8867 10.4367C11.913 10.3976 11.9376 10.337 11.9602 10.2552C11.9832 10.1735 11.9946 10.0834 11.9946 9.98533C11.9879 9.70393 12.0093 9.45033 12.0583 9.22463C12.1073 8.99887 12.163 8.8287 12.2254 8.7141C12.2877 8.59959 12.3581 8.50297 12.4364 8.42463C12.5148 8.34614 12.5707 8.29858 12.6036 8.28221C12.6362 8.26574 12.6622 8.25457 12.6818 8.24786C12.8389 8.19553 13.0238 8.24621 13.2366 8.40015C13.4494 8.55396 13.649 8.74387 13.8356 8.96958C14.0222 9.19553 14.2463 9.44903 14.508 9.73033C14.77 10.0118 14.999 10.221 15.1952 10.3586L15.3914 10.4765C15.5226 10.555 15.6928 10.6271 15.9022 10.6925C16.1114 10.7579 16.2945 10.7743 16.4518 10.7416L18.9649 10.7024C19.2136 10.7024 19.4069 10.6612 19.5441 10.5795C19.6816 10.4977 19.7633 10.4076 19.7896 10.3096C19.8159 10.2115 19.8173 10.1001 19.7946 9.97563C19.7713 9.85143 19.7484 9.76463 19.7256 9.71563Z" fill="#6F6F6F"/>
</svg>
