<svg width="19" height="15" viewBox="0 0 19 15" fill="none" xmlns="http://www.w3.org/2000/svg">
<g clip-path="url(#clip0_11_59)">
<path d="M18.0402 1.96763C17.3936 1.19902 16.1998 0.885498 13.9199 0.885498H5.64387C3.3118 0.885498 2.09777 1.21924 1.45361 2.03753C0.825562 2.83538 0.825562 4.01094 0.825562 5.63794V8.739C0.825562 11.891 1.57073 13.4914 5.64387 13.4914H13.9199C15.897 13.4914 16.9926 13.2148 17.7014 12.5364C18.4283 11.8409 18.7384 10.7052 18.7384 8.739V5.63794C18.7384 3.92213 18.6898 2.73964 18.0402 1.96763ZM12.3257 7.6166L8.56752 9.58063C8.48351 9.62455 8.39163 9.64634 8.29986 9.64634C8.19597 9.64634 8.09231 9.61836 8.0005 9.56278C7.82761 9.45803 7.72204 9.27064 7.72204 9.06852V5.15304C7.72204 4.95126 7.82732 4.76406 7.99986 4.65924C8.17246 4.55443 8.38712 4.54727 8.56619 4.64029L12.3244 6.59167C12.5156 6.69094 12.6356 6.88832 12.6359 7.10367C12.6362 7.3192 12.5166 7.51687 12.3257 7.6166Z" fill="#6F6F6F"/>
</g>
<defs>
<clipPath id="clip0_11_59">
<rect width="18" height="15" fill="white" transform="translate(0.825562)"/>
</clipPath>
</defs>
</svg>
